<?xml version="1.0" encoding="UTF-8"?>
<svg width="12px" height="10px" viewBox="0 0 12 10" version="1.1" xmlns="http://www.w3.org/2000/svg" xmlns:xlink="http://www.w3.org/1999/xlink">
    <title></title>
    <g id="Symbols" stroke="none" stroke-width="1" fill="none" fill-rule="evenodd">
        <g id="face-card-press" transform="translate(-3.000000, -189.000000)" fill="#000000" fill-rule="nonzero">
            <path d="M13.3828125,198.023438 C13.6171875,198.023438 13.8164062,197.941406 13.9804688,197.777344 C14.1445312,197.613281 14.2265625,197.414062 14.2265625,197.179688 L14.2265625,189.84375 C14.2265625,189.609375 14.1445312,189.410156 13.9804688,189.246094 C13.8164062,189.082031 13.6171875,189 13.3828125,189 L4.55859375,189 C4.32421875,189 4.125,189.082031 3.9609375,189.246094 C3.796875,189.410156 3.71484375,189.609375 3.71484375,189.84375 L3.71484375,197.179688 C3.71484375,197.414062 3.796875,197.613281 3.9609375,197.777344 C4.125,197.941406 4.32421875,198.023438 4.55859375,198.023438 L13.3828125,198.023438 Z M9,192.632812 L8.98828125,192.632812 C8.87109375,192.632812 8.7734375,192.589844 8.6953125,192.503906 L8.671875,192.492188 L5.4609375,189.84375 L12.4804688,189.84375 L9.33984375,192.46875 L9.31640625,192.480469 L9.3046875,192.503906 C9.21875,192.589844 9.1171875,192.632812 9,192.632812 Z M13.3828125,197.179688 L4.55859375,197.179688 L4.55859375,190.183594 L8.109375,193.113281 C8.3515625,193.355469 8.6484375,193.476562 9,193.476562 C9.3515625,193.476562 9.6484375,193.351562 9.890625,193.101562 L13.3828125,190.183594 L13.3828125,197.179688 Z" id=""></path>
        </g>
    </g>
</svg>