<?xml version="1.0" encoding="UTF-8"?>
<svg width="12px" height="11px" viewBox="0 0 12 11" version="1.1" xmlns="http://www.w3.org/2000/svg" xmlns:xlink="http://www.w3.org/1999/xlink">
    <title></title>
    <g id="Symbols" stroke="none" stroke-width="1" fill="none" fill-rule="evenodd">
        <g id="face-card-press" transform="translate(-37.000000, -188.000000)" fill="#000000" fill-rule="nonzero">
            <path d="M41.0078125,198.761719 C41.796875,198.761719 42.6191406,198.552734 43.4746094,198.134766 C44.3300781,197.716797 45.1367187,197.125 45.8945312,196.359375 C46.4257812,195.828125 46.8828125,195.265625 47.265625,194.671875 C47.640625,194.078125 47.9140625,193.480469 48.0859375,192.878906 C48.46875,191.550781 48.34375,190.394531 47.7109375,189.410156 C47.1953125,188.621094 46.6953125,188.226562 46.2109375,188.226562 C45.9296875,188.226562 45.6796875,188.335938 45.4609375,188.554688 C45.0859375,188.929688 44.7851562,189.292969 44.5585937,189.644531 C44.2148437,190.175781 44.1015625,190.625 44.21875,190.992188 C44.25,191.109375 44.3183594,191.230469 44.4238281,191.355469 C44.5117187,191.459635 44.6470812,191.604492 44.8299154,191.790039 L44.9453125,191.90625 C45.1953125,192.15625 45.34375,192.316406 45.390625,192.386719 C45.46875,192.496094 45.3945312,192.730469 45.1679687,193.089844 C44.9570312,193.425781 44.5703125,193.886719 44.0078125,194.472656 C43.53125,194.925781 43.1445312,195.257812 42.8476562,195.46875 C42.4726562,195.742188 42.1953125,195.878906 42.015625,195.878906 C41.9765625,195.878906 41.9453125,195.871094 41.921875,195.855469 C41.8515625,195.800781 41.6914062,195.652344 41.4414062,195.410156 C41.1914062,195.160156 41.0058594,194.984375 40.8847656,194.882812 C40.7636719,194.78125 40.6445312,194.714844 40.5273437,194.683594 C40.4335937,194.652344 40.3359375,194.636719 40.234375,194.636719 C39.8984375,194.636719 39.5078125,194.792969 39.0625,195.105469 C38.75,195.316406 38.4296875,195.589844 38.1015625,195.925781 C37.84375,196.175781 37.734375,196.460938 37.7734375,196.78125 C37.8203125,197.226562 38.2109375,197.691406 38.9453125,198.175781 C39.5546875,198.566406 40.2421875,198.761719 41.0078125,198.761719 Z M41.0078125,197.929688 C40.40625,197.929688 39.8710937,197.777344 39.4023437,197.472656 C39.1289062,197.292969 38.9257812,197.136719 38.7929687,197.003906 C38.6679687,196.878906 38.6015625,196.773438 38.59375,196.6875 C38.5859375,196.632812 38.6171875,196.574219 38.6875,196.511719 C38.9921875,196.207031 39.2734375,195.964844 39.53125,195.785156 C39.8359375,195.574219 40.0703125,195.46875 40.234375,195.46875 C40.25,195.46875 40.2617187,195.472656 40.2695312,195.480469 C40.3085937,195.496094 40.3554687,195.53125 40.4101562,195.585938 C40.4960937,195.65625 40.6445312,195.792969 40.8554687,195.996094 C41.1289062,196.277344 41.3203125,196.457031 41.4296875,196.535156 L41.453125,196.546875 C41.6171875,196.65625 41.8046875,196.710938 42.015625,196.710938 C42.203125,196.710938 42.40625,196.664062 42.625,196.570312 C42.8359375,196.484375 43.0742187,196.34375 43.3398437,196.148438 C43.6601562,195.914062 44.0742187,195.558594 44.5820312,195.082031 L44.59375,195.070312 L44.6171875,195.046875 C45.2109375,194.421875 45.6289062,193.917969 45.8710937,193.535156 C45.9960937,193.339844 46.0898437,193.15625 46.1523437,192.984375 C46.2070312,192.828125 46.2382812,192.683594 46.2460937,192.550781 C46.2617187,192.308594 46.203125,192.09375 46.0703125,191.90625 C45.9921875,191.796875 45.8203125,191.609375 45.5546875,191.34375 L45.53125,191.320312 C45.328125,191.117188 45.1914062,190.972656 45.1210937,190.886719 C45.0664062,190.816406 45.03125,190.765625 45.015625,190.734375 C44.984375,190.609375 45.0664062,190.394531 45.2617187,190.089844 C45.4492187,189.800781 45.7109375,189.488281 46.046875,189.152344 C46.109375,189.089844 46.1640625,189.058594 46.2109375,189.058594 C46.2890625,189.058594 46.390625,189.117188 46.515625,189.234375 C46.65625,189.367188 46.8203125,189.578125 47.0078125,189.867188 C47.25,190.242188 47.3984375,190.65625 47.453125,191.109375 C47.5,191.59375 47.4453125,192.105469 47.2890625,192.644531 C47.1328125,193.167969 46.8867187,193.695312 46.5507812,194.226562 C46.2148437,194.765625 45.8007812,195.28125 45.3085937,195.773438 C44.9648437,196.117188 44.6054687,196.429688 44.2304687,196.710938 C43.8632812,196.976562 43.4921875,197.203125 43.1171875,197.390625 C42.75,197.5625 42.3867187,197.695312 42.0273437,197.789062 C41.6757812,197.882812 41.3359375,197.929688 41.0078125,197.929688 Z" id=""></path>
        </g>
    </g>
</svg>