<?xml version="1.0" encoding="UTF-8"?>
<svg width="40px" height="40px" viewBox="0 0 40 40" version="1.1" xmlns="http://www.w3.org/2000/svg" xmlns:xlink="http://www.w3.org/1999/xlink">
    <title>Group 7</title>
    <g id="templates" stroke="none" stroke-width="1" fill="none" fill-rule="evenodd">
        <g id="homepage" transform="translate(-9.000000, -4872.000000)">
            <g id="Group-6" transform="translate(9.000000, 4872.000000)">
                <g id="Group-7">
                    <rect id="Rectangle" fill="#FFD100" x="0" y="0" width="40" height="40"></rect>
                    <path d="M24.7738078,27.4033983 C24.7738078,28.3073747 21.7273285,27.5690189 21.5930424,25.9982245 C21.5930424,25.5568585 22.1191074,22.7356718 22.9398929,19.5732719 C20.4460699,23.1891775 17.8179608,26.9429557 17.5134901,27.5321662 C17.5117174,27.5356347 17.5103878,27.5391031 17.5090583,27.5430052 C17.494433,27.5720538 17.4837965,27.5958997 17.4837965,27.6054381 C17.4837965,27.6344867 17.4705008,27.6561648 17.4501142,27.6726402 C17.3747721,27.8187505 17.2954413,27.9037286 17.2112354,27.9037286 C16.4684511,27.9037286 14.3615319,26.2744033 14.3615319,25.3470146 C14.3615319,24.234495 14.9168474,21.3252952 15.5984717,18.3866133 L14.9341318,20.6198902 C14.9341318,20.6198902 11.8974026,26.5423445 10.8966825,26.5423445 C9.89684872,26.5423445 8.88549205,24.9854241 8.88637784,24.4651499 C8.88682161,24.0489305 14.2928377,13.6816005 14.9044381,13.6816005 C15.0763953,13.6816005 16.0700245,14.4750186 16.5247361,14.6787926 C17.1447571,12.3848171 17.7195729,10.6514369 17.9650995,10.6514369 C18.4823007,10.6514369 20.8378488,11.9685977 20.8378488,12.4780329 C20.8378488,12.987468 18.3475713,19.2979602 18.3475713,20.4334586 C18.3475713,20.4560038 18.3475713,20.4841853 18.3471281,20.5106326 C20.3228635,17.4609588 24.492383,11.1387604 25.0995516,11.1387604 C25.3291233,11.1387604 25.6309348,11.191655 25.9442693,11.2818358 C26.4831868,10.4043067 27.0376158,9.86712363 27.5858403,9.86712363 C28.4185919,9.86712363 30.4856241,11.2436824 30.4856241,12.1168759 C30.4856241,12.9900694 24.7738078,19.756235 24.7738078,27.4033983 M31.354274,11.9486539 C31.1730098,10.4814807 28.7017895,9 27.5858403,9 C27.0132405,9 26.3338322,9.22675283 25.5400811,10.3076224 C25.3765445,10.2837765 25.2271899,10.2716368 25.0995516,10.2716368 C24.7538643,10.2716368 24.3239713,10.2777067 22.2135066,13.1760674 C22.1195506,13.0048105 21.9653209,12.812309 21.7175784,12.5929267 C21.7220103,12.5513048 21.7242262,12.5135849 21.7242262,12.4780329 C21.7242262,12.0618135 21.5261209,11.5168263 20.0596094,10.6349616 C19.5313284,10.3171608 18.5567564,9.78431332 17.9650995,9.78431332 C17.4000338,9.78431332 16.9860956,9.78821538 15.9805003,13.3004996 C15.4938791,12.9688248 15.2368297,12.8144768 14.9044381,12.8144768 C14.3154403,12.8144768 13.9600029,12.8144768 10.8825004,18.5119126 C8.97014109,22.0523784 8.00044416,24.0550004 8.00000049,24.4638492 C7.99955779,24.9416343 8.30092612,25.5468866 8.68118205,26.0550211 C8.82965027,26.654637 9.29544162,27.3496366 9.76211935,27.8066108 C10.3174348,28.3507309 10.9272625,28.6386159 11.5246809,28.6386159 C11.8451064,28.6386159 12.4660138,28.6312454 13.9019452,26.5132959 C13.9710827,26.61605 14.0473111,26.7183706 14.1284147,26.8198241 C14.380589,28.2527459 16.7303757,30 17.839677,30 C18.2855249,30 18.6086095,29.8100999 18.8621134,29.3149723 C18.8926935,29.2633785 18.9183984,29.2100504 18.9383419,29.1545545 C18.9449897,29.1389462 18.9511944,29.1216038 18.9578422,29.1059955 C19.1355609,28.7925303 19.8668223,27.7138286 20.767825,26.4036048 C20.8679856,26.8007474 21.0807162,27.152366 21.362141,27.4545586 C21.6076676,28.9676893 23.4628556,29.8920431 24.7520916,29.8920431 C25.8135286,29.8920431 26.2881837,29.2594764 26.2881837,28.6321125 C26.2881837,23.1557932 29.3306743,18.1750351 30.9655975,15.4990916 C31.7513711,14.2127137 32.0000005,13.7847882 32.0000005,13.3460236 C32.0000005,12.8704063 31.7429505,12.387852 31.354274,11.9486539" id="Fill-1" fill="#231F20"></path>
                </g>
            </g>
        </g>
    </g>
</svg>