<?xml version="1.0" encoding="UTF-8"?>
<svg width="96px" height="51px" viewBox="0 0 96 51" version="1.1" xmlns="http://www.w3.org/2000/svg" xmlns:xlink="http://www.w3.org/1999/xlink">
    <title>Group 23</title>
    <g id="templates" stroke="none" stroke-width="1" fill="none" fill-rule="evenodd">
        <g id="homepage" transform="translate(-210.000000, -15.000000)" fill="#000000">
            <g id="Group-23" transform="translate(210.000000, 15.000000)">
                <path d="M12.5504346,44 C13.1782844,45.563526 13.6696736,46.7989373 14.0252583,47.706234 C14.380843,48.6148591 14.6839429,49.3673973 14.9332459,49.9638486 C14.9752337,50.0608217 15.0277186,50.1498245 15.0920125,50.2288642 C15.1563064,50.3085682 15.2474988,50.3836227 15.3662457,50.4553563 C15.4554699,50.5071639 15.5597835,50.5463516 15.6785304,50.5722554 C15.7966213,50.5981592 15.9042152,50.6141 16,50.620742 L16,51 L12.2860423,51 L12.2860423,50.620742 C12.4585862,50.607458 12.6619649,50.5755764 12.8948663,50.5257615 C13.1284238,50.4752823 13.2452026,50.4128475 13.2452026,50.3384572 C13.2452026,50.3125534 13.2425783,50.2833286 13.2379859,50.2507828 C13.2333935,50.218237 13.2196162,50.175064 13.1966541,50.1192713 L12.6153846,48.6899137 L10.2614401,48.6899137 C10.206987,48.8227536 10.1472856,48.9781763 10.0816795,49.156846 C10.0167295,49.3348515 9.96030835,49.4942594 9.91241594,49.6330771 C9.85205839,49.8150678 9.81597507,49.9459152 9.80482204,50.0269475 C9.79366902,50.1079799 9.78842053,50.1651011 9.78842053,50.1969826 C9.78842053,50.301262 9.86583566,50.3896005 10.021322,50.4626625 C10.1761522,50.5357245 10.43464,50.5881962 10.7961292,50.620742 L10.7961292,51 L8,51 L8,50.620742 C8.10562572,50.6141 8.2250287,50.597495 8.35820896,50.5695986 C8.49073315,50.5423664 8.5957028,50.5038429 8.67246187,50.4553563 C8.80367394,50.3776449 8.9152042,50.2820002 9.00639659,50.1684221 C9.09758898,50.0548439 9.17369198,49.9200114 9.23470559,49.7645887 C9.60603576,48.8533068 9.97867804,47.9400323 10.3519764,47.0254294 C10.7246187,46.1108265 11.1372806,45.1025714 11.5893062,44 L12.5504346,44 Z M43,44 L43,44.3845858 C42.8986815,44.3946887 42.7709924,44.4088329 42.6190146,44.4263447 C42.4663428,44.4452035 42.3372658,44.4707977 42.2324774,44.5031271 C42.1006246,44.546233 42.0124913,44.6129125 41.9680777,44.7024921 C41.9243581,44.7934186 41.9021513,44.8957952 41.9021513,45.0109689 L41.9021513,49.9688252 C41.9021513,50.0873665 41.925052,50.188396 41.9708536,50.2725873 C42.0166551,50.3561051 42.1034004,50.4248052 42.2324774,50.4773405 C42.3039556,50.5069758 42.4212353,50.5359377 42.5857044,50.5635524 C42.7501735,50.5918407 42.888272,50.6086789 43,50.6154142 L43,51 L39,51 L39,50.6154142 C39.0916031,50.6086789 39.2262318,50.598576 39.4038862,50.5857789 C39.5815406,50.5723083 39.704372,50.5527759 39.7723803,50.5265082 C39.8979875,50.4773405 39.9833449,50.4120081 40.0291464,50.331858 C40.074948,50.2510344 40.0978487,50.1479842 40.0978487,50.0233811 L40.0978487,45.0608102 C40.0978487,44.9490041 40.0756419,44.8499952 40.0319223,44.7644568 C39.9875087,44.6789185 39.9014573,44.6102184 39.7723803,44.5576831 C39.6911867,44.5246801 39.5711312,44.4910036 39.4115198,44.45598 C39.2526024,44.4216299 39.1151978,44.3980564 39,44.3845858 L39,44 L43,44 Z M84.4847662,44 L84.4847662,45.7850269 L84.0927099,45.7850269 C83.9934641,45.5196305 83.8217195,45.2515396 83.5774761,44.9794072 C83.3332328,44.7072748 83.0918049,44.5469592 82.8510809,44.4977868 C82.7476119,44.4748845 82.6040221,44.460739 82.4203117,44.4553503 C82.2825289,44.4523191 82.1625628,44.4500457 82.0604135,44.4490985 L80.9020613,44.4486143 L80.9020613,47.1463626 L81.6544997,47.1463626 C81.8438411,47.1463626 82.0155857,47.1254811 82.1704374,47.0830446 C82.3252891,47.0399346 82.4660633,46.957756 82.5927602,46.8365089 C82.6722976,46.7603926 82.7518351,46.6276944 82.8327803,46.4363934 C82.9137255,46.2464396 82.965812,46.079388 82.9904475,45.9386066 L83.3825038,45.9386066 L83.3825038,48.8586413 L82.9904475,48.8586413 C82.9700352,48.7205543 82.916541,48.5474403 82.8327803,48.3386259 C82.7483157,48.1291378 82.6687783,47.9863356 82.5927602,47.9068514 C82.4794369,47.7889723 82.3457014,47.7074673 82.1908497,47.6623364 C82.035998,47.6185527 81.8579186,47.5956505 81.6544997,47.5956505 L80.9020613,47.5956505 L80.9020613,49.6137413 C80.9020613,49.8245766 80.9189542,49.9909546 80.9506285,50.1148961 C80.9837104,50.2374904 81.0442433,50.3324673 81.1343389,50.3984796 C81.2195073,50.4604503 81.3377577,50.5015396 81.4869784,50.5210739 C81.636903,50.5412818 81.8403218,50.5513857 82.0979387,50.5513857 C82.2183007,50.5513857 82.3625943,50.5493649 82.5315234,50.5459969 C82.6997486,50.5426289 82.8475616,50.5331986 82.9742584,50.5163587 C83.1192559,50.5001925 83.2536953,50.475943 83.3796883,50.4422633 C83.5042735,50.4099307 83.5978884,50.3621055 83.6598291,50.2994611 C83.8252388,50.1384719 84.010357,49.8926097 84.2165913,49.5618745 C84.4228255,49.2311393 84.5586727,48.9839299 84.6241327,48.8195727 L85,48.8195727 L84.8613374,51 L78,51 L78,50.6153772 C78.0957265,50.6086413 78.2266466,50.595843 78.3920563,50.5756351 C78.5567622,50.5561008 78.672901,50.5331986 78.7425842,50.5069284 C78.8720965,50.454388 78.9600804,50.3877021 79.0051282,50.3068707 C79.0494721,50.2267129 79.0726998,50.1236528 79.0726998,49.9990377 L79.0726998,45.0602386 C79.0726998,44.9416859 79.0529915,44.8440146 79.0149824,44.7665512 C78.9776772,44.6890878 78.8868778,44.6197075 78.7425842,44.5570631 C78.6524887,44.517321 78.5271996,44.4809469 78.3660131,44.4486143 C78.2041227,44.4156082 78.0823529,44.3947267 78,44.3839492 L78,44 L84.4847662,44 Z M33.0848844,44 L33.0848844,44.3845858 C32.9724893,44.3946887 32.840765,44.4088329 32.6889957,44.4263447 C32.5365105,44.4452035 32.4047863,44.4707977 32.293107,44.5031271 C32.1563714,44.546233 32.0654531,44.6129125 32.0203518,44.7024921 C31.9745347,44.7934186 31.952342,44.8964688 31.952342,45.0109689 L31.952342,49.6132012 C31.952342,49.8307515 31.9680916,50.0025017 31.9995909,50.1264313 C32.0310902,50.2523814 32.0919411,50.343308 32.1828595,50.4025787 C32.2737779,50.4658905 32.4004909,50.5063023 32.5629986,50.5238141 C32.7255062,50.5419994 32.9502966,50.5514288 33.2366537,50.5514288 C33.5165678,50.5514288 33.7878912,50.5359377 34.0520556,50.5042817 C34.3155042,50.4732993 34.5059317,50.4045992 34.6211904,50.2995285 C34.7994477,50.1318195 34.9820004,49.8954104 35.1688484,49.5916482 C35.3556965,49.2872125 35.5053181,49.0090445 35.6169973,48.7557972 L36,48.7557972 L35.853242,51 L29,51 L29,50.6154142 C29.1224177,50.6053113 29.2655962,50.5898201 29.4302516,50.5682671 C29.594191,50.5467141 29.7030067,50.5265082 29.7552669,50.5069758 C29.8812641,50.4605023 29.968603,50.3971904 30.0172837,50.3143462 C30.0659644,50.2321755 30.0910207,50.1264313 30.0910207,49.999134 L30.0910207,45.0608102 C30.0910207,44.9422688 30.0716916,44.8439334 30.0330333,44.767151 C29.9943751,44.689695 29.902025,44.6196478 29.7552669,44.5576831 C29.6464512,44.5112095 29.5161587,44.4748388 29.3643894,44.4465506 C29.2126202,44.4189358 29.0909184,44.3980564 29,44.3845858 L29,44 L33.0848844,44 Z M50.5504346,44 C51.1782844,45.563526 51.6696736,46.7989373 52.0252583,47.706234 C52.380843,48.6148591 52.6839429,49.3673973 52.9332459,49.9638486 C52.9752337,50.0608217 53.0277186,50.1498245 53.0920125,50.2288642 C53.1563064,50.3085682 53.2474988,50.3836227 53.3662457,50.4553563 C53.4554699,50.5071639 53.5597835,50.5463516 53.6785304,50.5722554 C53.7966213,50.5981592 53.9042152,50.6141 54,50.620742 L54,51 L50.2860423,51 L50.2860423,50.620742 C50.4585862,50.607458 50.6619649,50.5755764 50.8948663,50.5257615 C51.1284238,50.4752823 51.2452026,50.4128475 51.2452026,50.3384572 C51.2452026,50.3125534 51.2425783,50.2833286 51.2379859,50.2507828 C51.2333935,50.218237 51.2196162,50.175064 51.1966541,50.1192713 L50.6153846,48.6899137 L48.2614401,48.6899137 C48.206987,48.8227536 48.1472856,48.9781763 48.0816795,49.156846 C48.0167295,49.3348515 47.9603083,49.4942594 47.9124159,49.6330771 C47.8520584,49.8150678 47.8159751,49.9459152 47.804822,50.0269475 C47.793669,50.1079799 47.7884205,50.1651011 47.7884205,50.1969826 C47.7884205,50.301262 47.8658357,50.3896005 48.021322,50.4626625 C48.1761522,50.5357245 48.43464,50.5881962 48.7961292,50.620742 L48.7961292,51 L46,51 L46,50.620742 C46.1056257,50.6141 46.2250287,50.597495 46.358209,50.5695986 C46.4907331,50.5423664 46.5957028,50.5038429 46.6724619,50.4553563 C46.8036739,50.3776449 46.9152042,50.2820002 47.0063966,50.1684221 C47.097589,50.0548439 47.173692,49.9200114 47.2347056,49.7645887 C47.6060358,48.8533068 47.978678,47.9400323 48.3519764,47.0254294 C48.7246187,46.1108265 49.1372806,45.1025714 49.5893062,44 L50.5504346,44 Z M71.6649455,44.0230364 C72.0308545,44.0230364 72.3655818,44.0682182 72.6665818,44.1579455 C72.9682182,44.2489455 73.2227636,44.3494909 73.4308545,44.4614909 L73.7204,44.2050364 L74.1257636,44.2050364 L74.1677636,46.6187636 L73.7573091,46.6187636 C73.5244,45.8812182 73.2450364,45.3390364 72.9198545,44.9941273 C72.5934,44.6485818 72.1963091,44.4748545 71.7279455,44.4748545 C71.1444,44.4748545 70.7002182,44.7325818 70.3966727,45.2480364 C70.0918545,45.7634909 69.9397636,46.4857636 69.9397636,47.4161273 C69.9397636,47.9417636 69.9919455,48.3910364 70.0956727,48.7626727 C70.2000364,49.1349455 70.3355818,49.4346727 70.5035818,49.6612182 C70.6836727,49.8985818 70.8962182,50.0716727 71.1412182,50.1824 C71.3868545,50.2931273 71.6579455,50.3478545 71.9557636,50.3478545 C72.3910364,50.3478545 72.7773091,50.2301273 73.1171273,49.9934 C73.4569455,49.7579455 73.7668545,49.4003091 74.0462182,48.9217636 L74.4471273,49.1642182 C74.3134909,49.4378545 74.1614,49.6822182 73.9902182,49.8985818 C73.8196727,50.1136727 73.6224,50.2994909 73.3990364,50.4554 C73.1527636,50.6259455 72.8816727,50.7595818 72.5851273,50.8556727 C72.2885818,50.9524 71.9379455,51.0001273 71.5344909,51.0001273 C71.0495818,51.0001273 70.5952182,50.9218545 70.1733091,50.7646727 C69.7501273,50.6074909 69.3823091,50.3796727 69.0685818,50.0812182 C68.7612182,49.7884909 68.5187636,49.4264 68.3412182,48.9962182 C68.1643091,48.5654 68.0752182,48.0913091 68.0752182,47.5745818 C68.0752182,47.0616727 68.1649455,46.5856727 68.3437636,46.1491273 C68.5225818,45.7113091 68.7733091,45.3333091 69.0965818,45.0125818 C69.4134909,44.6988545 69.7940364,44.4551273 70.2382182,44.2820364 C70.6824,44.1095818 71.1577636,44.0230364 71.6649455,44.0230364 Z M59.5587442,44 L63.2752024,48.7066309 L63.2752024,46.0736772 C63.2752024,45.6550569 63.2483853,45.3442733 63.1934429,45.1399866 C63.1398087,44.9350301 63.0528166,44.7843269 62.9357371,44.6858674 C62.8422042,44.6108506 62.7055024,44.5465506 62.5230153,44.4922974 C62.3411822,44.438714 62.1940152,44.4012056 62.0828223,44.3817816 L62.0828223,44 L65,44 L65,44.3817816 C64.9103916,44.3924983 64.7828469,44.4099129 64.6167116,44.4360348 C64.4505764,44.4621567 64.3014471,44.5264568 64.1673616,44.6275954 C64.0483198,44.7153382 63.9639441,44.8673811 63.9155425,45.0810449 C63.8658327,45.2953784 63.8416319,45.6101808 63.8416319,46.0254521 L63.8416319,51 L62.9880631,51 L58.7529229,45.6182184 L58.7529229,48.8861353 C58.7529229,49.2913597 58.77974,49.5994642 58.8320661,49.809779 C58.8850462,50.0214334 58.970076,50.1754856 59.0884637,50.2739451 C59.1748017,50.3456129 59.3121576,50.4099129 59.5005314,50.4648359 C59.6889052,50.5210985 59.8386886,50.5586068 59.9505355,50.5780308 L59.9505355,50.9604823 L57.0281253,50.9604823 L57.0281253,50.5780308 C57.1530537,50.5679839 57.2956422,50.5445412 57.4571989,50.5070328 C57.6181015,50.4695244 57.7534952,50.4112525 57.8620718,50.3328868 C57.9863462,50.2377763 58.0720301,50.0944407 58.1184695,49.9035499 C58.1642548,49.7119893 58.1878015,49.3911587 58.1878015,48.9397187 L58.1878015,45.6430007 C58.1878015,45.4795713 58.1629466,45.3248493 58.1132369,45.1788346 C58.0641812,45.0341594 57.9863462,44.9089082 57.88104,44.8044206 C57.769193,44.6932351 57.6409942,44.6054923 57.4957894,44.5411922 C57.3499305,44.4782317 57.1851034,44.4279973 57,44.3924983 L57,44 L59.5587442,44 Z M23.0848844,44 L23.0848844,44.3845858 C22.9724893,44.3946887 22.840765,44.4088329 22.6889957,44.4263447 C22.5365105,44.4452035 22.4047863,44.4707977 22.293107,44.5031271 C22.1563714,44.546233 22.0654531,44.6129125 22.0203518,44.7024921 C21.9745347,44.7934186 21.952342,44.8964688 21.952342,45.0109689 L21.952342,49.6132012 C21.952342,49.8307515 21.9680916,50.0025017 21.9995909,50.1264313 C22.0310902,50.2523814 22.0919411,50.343308 22.1828595,50.4025787 C22.2737779,50.4658905 22.4004909,50.5063023 22.5629986,50.5238141 C22.7255062,50.5419994 22.9502966,50.5514288 23.2366537,50.5514288 C23.5165678,50.5514288 23.7878912,50.5359377 24.0520556,50.5042817 C24.3155042,50.4732993 24.5059317,50.4045992 24.6211904,50.2995285 C24.7994477,50.1318195 24.9820004,49.8954104 25.1688484,49.5916482 C25.3556965,49.2872125 25.5053181,49.0090445 25.6169973,48.7557972 L26,48.7557972 L25.853242,51 L19,51 L19,50.6154142 C19.1224177,50.6053113 19.2655962,50.5898201 19.4302516,50.5682671 C19.594191,50.5467141 19.7030067,50.5265082 19.7552669,50.5069758 C19.8812641,50.4605023 19.968603,50.3971904 20.0172837,50.3143462 C20.0659644,50.2321755 20.0910207,50.1264313 20.0910207,49.999134 L20.0910207,45.0608102 C20.0910207,44.9422688 20.0716916,44.8439334 20.0330333,44.767151 C19.9943751,44.689695 19.902025,44.6196478 19.7552669,44.5576831 C19.6464512,44.5112095 19.5161587,44.4748388 19.3643894,44.4465506 C19.2126202,44.4189358 19.0909184,44.3980564 19,44.3845858 L19,44 L23.0848844,44 Z M49.4305396,45.7123067 L48.4582582,48.2077047 L50.4172544,48.2077047 L49.4305396,45.7123067 Z M11.4305396,45.7123067 L10.4582582,48.2077047 L12.4172544,48.2077047 L11.4305396,45.7123067 Z M83.2053333,0.399129091 C84.948,0.399129091 86.6706667,1.43109273 88.186,3.38469273 C88.504,3.79438364 90.0906667,5.92356545 90.0906667,7.58452909 C90.0906667,8.69991091 89.5453333,9.34371091 88.2286667,10.8970382 C87.0446667,12.2929473 85.2466667,14.4140564 83.5446667,17.0403836 C85.77,16.8560564 87.7926667,16.7571655 89.4146667,16.7571655 C92.6413333,16.7571655 94.5473333,17.0646018 95.376,18.6865473 C96.22,20.3367473 95.93,22.4968745 94.5373333,24.93282 C94.37,25.2254564 92.8586667,27.8147836 91.3146667,28.61802 C90.7653333,28.9039291 90.2433333,28.9368927 89.898,28.9368927 C89.35,28.9368927 88.6406667,28.8393473 87.4646667,28.6765473 C85.5986667,28.4188927 82.6126667,28.0065109 79.1706667,27.91502 C79.0766667,28.6489655 79.0293333,29.3741655 79.0293333,30.08322 C79.0293333,32.4074927 78.998,33.5100927 78.8046667,34.3207291 C78.6246667,35.0762018 77.9506667,36.8326927 75.586,36.8326927 L75.586,36.8326927 L75.476,36.8326927 C73.8433333,36.8326927 72.086,35.3365473 71.586,34.87842 C70.736,34.0973836 69.3086667,32.5198382 69.3086667,30.7202927 C69.3086667,30.2540927 69.3373333,29.58742 69.442,28.70682 C68.286,28.9483291 67.172,29.2443291 66.1086667,29.5914564 C66.1466667,30.3159836 66.212,30.9429655 66.268,31.4798018 C66.426,32.9941109 66.5746667,34.4243291 65.5386667,35.5861291 C65.112,36.0637655 64.3373333,36.6335655 63.0686667,36.6335655 C61.472,36.6335655 59.8393333,35.7401836 58.348,34.0489473 C58.2766667,33.96822 58.04,33.6950927 57.7553333,33.3143291 C57.35,33.4394564 56.9606667,33.5107655 56.5666667,33.5107655 C55.3306667,33.5107655 54.384,32.8797473 53.752,31.6345291 L53.752,31.6345291 L53.7293333,31.5901291 C53.7073333,31.5470745 53.686,31.5033473 53.6666667,31.45962 C53.3993333,31.4710564 53.13,31.4771109 52.8613333,31.4771109 C51.0726667,31.4771109 49.342,30.4061291 47.9386667,28.4444564 C47.68,28.3818927 47.388,28.3052018 47.0466667,28.2157291 C46.8466667,28.1625836 46.6326667,28.1067473 46.4066667,28.04822 C46.4113333,28.1437473 46.4133333,28.24062 46.4133333,28.3395109 C46.4133333,29.9634745 45.158,31.1885109 43.494,31.1885109 C42.378,31.1885109 40.9133333,30.57902 39.6706667,29.5981836 C38.6586667,28.7996564 37.9166667,27.8638927 37.4999973,26.8796927 C36.5206667,26.9146745 35.4333333,27.0431655 34.152,27.2772745 C33.476,28.5016382 32.1313333,29.86122 30.4253333,29.86122 C29.9,29.86122 29.454,29.7233109 29.0666667,29.4959291 C28.994,30.2567836 28.9573333,31.0075473 28.9573333,31.7401473 C28.9573333,33.3109655 27.7526667,34.9012927 25.45,34.9012927 C24.172,34.9012927 22.7166667,34.4297109 21.5566667,33.6392564 C20.4046667,32.8541836 19.6213333,31.82222 19.288,30.6711836 C18.9766667,31.1494927 18.732,31.53362 18.6033333,31.7522564 C18.4553333,32.1754018 18.2053333,32.5521291 17.8726667,32.8568745 C17.1213333,34.7680927 15.8046667,35.0688018 15.052,35.0688018 C13.446,35.0688018 11.722,33.77582 10.8366667,33.0048745 C9.99733333,32.2729473 9.35866667,31.5430382 8.92466667,30.8178382 C7.698,32.3832745 6.71533333,32.9571109 5.554,32.9571109 C4.33,32.9571109 3.12,32.3879836 2.05466667,31.31162 C1.10533333,30.3529836 -0.002,28.6947109 -2.70525479e-06,27.1777109 C-2.70525479e-06,26.5601473 0.0753333333,26.1921655 1.54333333,23.1709473 C2.36933333,21.4716382 3.43733333,19.3612927 4.47466667,17.3807836 C5.31533333,15.7749836 6.54066667,13.4809836 7.60333333,11.6713473 C9.01933333,9.26029273 9.90266667,7.89667455 11.582,7.89667455 C11.916,7.89667455 12.208,7.95251091 12.492,8.05611091 L12.492,8.05611091 L12.508,8.00363818 C12.818,6.98109273 13.0966667,6.16776545 13.336,5.58518364 C13.6053333,4.93129273 14.32,3.19565636 16.186,3.19565636 C17.0886667,3.19565636 18.36,3.69952909 19.9626667,4.69382 C21.452,5.61747455 22.3506667,6.45838364 22.764,7.34840182 C24.62,4.80818364 25.52,3.95112909 26.918,3.95112909 C26.956,3.95112909 26.994,3.95180182 27.0326667,3.95314727 C28.1313333,2.62652909 29.3233333,1.97869273 30.6573333,1.97869273 C32.3253333,1.97869273 34.1246667,3.19834727 34.8213333,3.72240182 C35.9613333,4.58147455 36.748,5.47351091 37.1733333,6.38842 C38.6253333,4.61443818 39.5793333,3.74325636 40.694,3.56700182 C41.4693333,2.08632909 42.5093333,1.33825636 43.7946667,1.33825636 C45.1893333,1.33825636 46.7833333,2.50140182 47.8753333,3.47618364 C49.5366667,4.96156545 50.42,6.41600182 50.5046667,7.80451091 C52.9306667,4.96223818 55.7566667,3.42707455 58.6493333,3.42707455 C60.758,3.42707455 62.4166667,5.50311091 63.626,7.31140182 C63.7586667,7.51052909 64.0073333,7.89129273 64.2906667,8.36556545 C64.738,7.59192909 65.178,6.86269273 65.5986667,6.19803818 C67.566,3.09407455 68.4953333,2.24374727 69.9233333,2.24374727 C71.524,2.24374727 73.2233333,3.37123818 74.0933333,4.04329273 C75.718,5.29725636 76.614,6.59360182 76.7626667,7.90205636 C77.352,6.75707455 77.9313333,5.70223818 78.478,4.78194727 C80.168,1.93900182 81.4213333,0.399129091 83.2053333,0.399129091 Z M82.902,1.64905636 C81.6133333,1.64905636 76.626,10.9589291 73.7033333,19.4911291 C70.482,20.01922 67.2606667,20.6791655 64.4033333,21.4615473 C67.1726667,14.2909473 73.952,7.99489273 73.952,6.98983818 C73.952,5.72712909 70.866,3.49502 69.62,3.49502 C68.8886667,3.49502 64.2706667,10.9374018 61.2386667,18.36902 C60.322,16.9939655 59.238,16.1429655 59.238,17.7171473 C59.238,20.4437109 53.1353333,23.7071109 52.4673333,23.7071109 C51.7986667,23.7071109 51.1,22.6132564 51.1,20.4363109 C51.1,12.6602564 58.6446667,10.7746018 61.4026667,10.7746018 C62.626,10.7746018 60.8973333,13.0968564 61.3766667,13.0968564 C61.8553333,13.0968564 62.9606667,11.88662 62.9606667,10.9212564 C62.9606667,9.95589273 59.872,4.67767455 58.346,4.67767455 C52.1486667,4.67767455 47.5466667,14.6952564 47.5466667,18.8513655 C47.5466667,19.36802 47.5866667,19.8920745 47.6613333,20.4134382 C47.0393333,19.1413109 46.382,18.0858018 46.07,18.0858018 C45.1966667,18.0858018 44.3613333,18.0965655 43.5486667,18.1127109 C44.7233333,13.7857291 47.6793333,7.76347455 47.6793333,6.72276545 C47.6793333,5.20240182 44.316,2.58885636 43.4913333,2.58885636 C42.9533333,2.58885636 42.4413333,3.62418364 41.9706667,5.22863818 C41.5866667,4.95685636 41.194,4.78396545 40.832,4.78396545 C39.7773333,4.78396545 33.1773333,14.1812927 29.888,19.4030018 C29.2206667,19.5388927 28.6486667,19.6727655 28.174,19.8005836 C30.7153333,12.8297836 34.716,7.64440182 34.716,6.72007455 C34.716,5.36452909 31.6066667,3.22929273 30.354,3.22929273 C29.53,3.22929273 28.696,4.06280182 27.8846667,5.42440182 C27.414,5.28447455 26.9593333,5.20240182 26.614,5.20240182 C25.7006667,5.20240182 19.4293333,15.0121109 16.4566667,19.7434018 C16.4573333,19.7023655 16.458,19.6586382 16.458,19.6243291 C16.458,17.8624564 20.2033333,8.07091091 20.2033333,7.28045636 C20.2033333,6.48932909 16.6606667,4.44625636 15.882,4.44625636 C15.5126667,4.44625636 14.648,7.13582 13.716,10.69522 C13.032,10.3790382 11.5373333,9.14727455 11.2786667,9.14727455 C10.358,9.14727455 2.22666667,25.2342018 2.22533311,25.88002 C2.22533311,26.6872927 3.74533333,29.1030564 5.25,29.1030564 C6.66785897,29.1030564 10.8063777,20.9433373 11.2791799,20.0018312 L11.3233333,19.9136018 L12.3199946,16.4541291 L12.2299389,16.8620902 C11.2775689,21.1411119 10.5112466,25.305864 10.4642815,27.0838148 L10.462,27.2483473 C10.462,28.6866382 13.6313333,31.2147473 14.748,31.2147473 C14.8746667,31.2147473 14.9946667,31.0828927 15.1073333,30.8568564 C15.1386667,30.83062 15.1586667,30.7976564 15.1586667,30.7525836 C15.1586667,30.7377836 15.1746667,30.7007836 15.196,30.6557109 C15.198,30.6496564 15.2006667,30.6442745 15.2026667,30.6388927 C15.6188642,29.8086974 18.912529,24.9365793 22.321702,19.8495418 L23.366,18.2896382 C22.1306667,23.1965109 21.3393333,27.5739473 21.3393333,28.2587836 C21.542,30.6960745 26.1246667,31.8417291 26.1246667,30.4390927 C26.1246667,28.5325836 26.348,26.6624018 26.7206667,24.85882 C27.316,24.7962564 28.066,24.6415291 28.9246667,24.4450927 C29.376,25.23622 29.8773333,26.0071655 30.122,26.0071655 C30.6253333,26.0071655 31.3093333,25.3781655 31.6806667,24.6543109 C31.802,24.4175109 32.0153333,24.0845109 32.3,23.6781836 C34.0346667,23.3176018 35.914,23.01622 37.726,23.01622 C38.2866667,23.01622 38.8293333,23.0364018 39.3613333,23.0653291 C39.3453333,23.3552745 39.336,23.5866927 39.336,23.7387291 C39.336,26.0219655 43.5806667,28.1289473 43.5806667,27.0377836 C43.5806667,26.24262 43.3113333,25.3882564 43.166,23.4978927 C46.2166667,24.0212745 48.336,24.78482 48.9306667,24.78482 C49.0013333,24.78482 49.046,24.7384018 49.072,24.6623836 C50.03,26.40542 51.3133333,27.6230564 52.5573333,27.6230564 C53.748,27.6230564 54.8266667,27.4844745 55.8026667,27.2523836 C55.5813333,28.0784927 55.5153333,28.8084018 55.674,29.1192018 C56.0133333,29.7825109 56.0486667,30.0058564 58.568,28.7545836 C58.6193333,29.5988564 60.8393333,32.7795109 62.7653333,32.7795109 C64.192,32.7795109 63.2426667,31.0472382 63.2426667,27.0747836 C63.2426667,26.8837291 63.254,26.6920018 63.2633333,26.5002745 C66.2386667,25.3189655 69.3126667,24.65902 72.2713333,24.3280382 C71.8106667,26.2345473 71.5346667,27.9822927 71.5346667,29.4185655 C71.5346667,30.7734382 74.27,32.9787946 75.1746667,32.9787946 C76.08,32.9787946 76.196,33.0708018 76.196,28.7814927 C76.196,27.1629109 76.412,25.5813291 76.7746667,24.0508745 C83.796,23.9513109 89.336,25.3169473 89.8513333,25.0485291 C90.738,24.5870382 93.8166667,20.4948382 92.8246667,18.5546927 C92.404,17.7312745 86.0546667,17.8631291 78.6453333,18.7807291 C81.9033333,11.8449109 87.258,6.85798364 87.258,6.28280182 C87.258,5.45602 85.0653333,1.64905636 82.902,1.64905636 Z M59.1733333,15.0787109 C58.468,15.3013836 57.6646667,15.6364018 56.886,16.1402745 C54.9293333,17.4063473 53.9626667,19.2011836 53.9333333,21.6256927 C54.312,21.3929291 54.716,21.1245109 55.1126667,20.8305291 C56.4326667,19.8537291 56.9146667,19.1554382 57.0133333,18.9199836 C57.0506667,16.9300564 58.208,15.89002 59.432,15.6646564 C59.3153333,15.46822 59.2313333,15.2724564 59.1733333,15.0787109 Z M74.81,11.95322 C74.6446667,12.1563836 74.4673333,12.3716564 74.2786667,12.6017291 C72.9333333,14.2371291 71.0833333,16.4880745 69.476,19.0222382 C70.3273333,18.8506927 71.208,18.6852018 72.1126667,18.5250927 C72.798,16.6488564 73.6053333,14.66162 74.5186667,12.60442 C74.6153333,12.3864564 74.7126667,12.1691655 74.81,11.95322 Z M40,14 C39.773386,15.643069 39.5783926,17.2746764 39.4209486,18.7485167 C38.1910408,18.8159385 37.0540184,18.9015642 36,19 C37.3241107,17.3387271 38.743083,15.581041 40,14 Z" id="Combined-Shape"></path>
            </g>
        </g>
    </g>
</svg>